# Blender 4.0.0
# www.blender.org
mtllib Cube_With_Pizazz.mtl
o Cube
v 1.000000 1.000000 -1.000000
v 1.000000 -1.000000 -1.000000
v 1.000000 1.000000 1.000000
v 1.000000 -1.000000 1.000000
v -1.000000 1.000000 -1.000000
v -1.000000 -1.000000 -1.000000
v -1.000000 1.000000 1.000000
v -1.000000 -1.000000 1.000000
vn -0.0000 1.0000 -0.0000
vn -0.0000 -0.0000 1.0000
vn -1.0000 -0.0000 -0.0000
vn -0.0000 -1.0000 -0.0000
vn 1.0000 -0.0000 -0.0000
vn -0.0000 -0.0000 -1.0000
vt 0.639535 0.342297
vt 0.864081 0.026892
vt 0.963878 0.251438
vt 0.739331 0.566844
vt 0.514785 0.882249
vt 0.839128 0.791390
vt 0.614582 1.106795
vt 0.215396 0.208610
vt 0.439943 -0.106795
vt 0.539739 0.117751
vt 0.315193 0.433156
vt 0.190443 0.973108
vt 0.414989 0.657703
vt 0.290239 1.197654
s 0
usemtl Material
f 1/1/1 5/2/1 7/3/1 3/4/1
f 4/5/2 3/4/2 7/6/2 8/7/2
f 8/8/3 7/9/3 5/10/3 6/11/3
f 6/12/4 2/13/4 4/5/4 8/14/4
f 2/13/5 1/1/5 3/4/5 4/5/5
f 6/11/6 5/10/6 1/1/6 2/13/6
