# Blender 4.0.0
# www.blender.org
mtllib Pine_Tree.mtl
o SapinHiver.015_Cylinder.034
v 0.767824 0.791130 -3.260491
v 0.638831 4.699447 -2.553808
v 1.260735 0.905772 -3.023825
v 0.646184 4.699762 -2.551092
v 1.539609 0.827138 -2.546163
v 0.649463 4.699943 -2.543968
v 1.298610 0.913925 -2.049673
v 0.646747 4.699883 -2.536608
v 0.825634 0.803575 -1.773571
v 0.639627 4.699618 -2.533324
v 0.325217 0.874896 -2.011501
v 0.632274 4.699303 -2.536041
v 0.053849 0.767566 -2.487899
v 0.628995 4.699122 -2.543165
v 0.287342 0.866743 -2.985654
v 0.631711 4.699182 -2.550525
v 0.746567 1.426937 -3.152464
v 0.725310 2.062743 -3.044438
v 0.704054 2.698550 -2.936411
v 0.682797 3.334357 -2.828385
v 0.661541 3.970163 -2.720358
v 0.779199 4.068440 -2.662982
v 0.875506 3.435906 -2.735151
v 0.971813 2.803372 -2.807319
v 1.068121 2.170839 -2.879488
v 1.164428 1.538305 -2.951657
v 0.850206 3.978966 -2.545738
v 0.988087 3.348600 -2.545823
v 1.125967 2.718235 -2.545908
v 1.263848 2.087869 -2.545993
v 1.401728 1.457504 -2.546078
v 0.788457 4.070433 -2.424847
v 0.890488 3.439131 -2.349813
v 0.992518 2.807830 -2.274778
v 1.094549 2.176528 -2.199743
v 1.196579 1.545226 -2.124708
v 0.675673 3.973206 -2.356876
v 0.705665 3.339279 -2.240215
v 0.735657 2.705353 -2.123554
v 0.765649 2.071427 -2.006893
v 0.795642 1.437501 -1.890232
v 0.550508 4.060893 -2.415516
v 0.505450 3.423693 -2.334713
v 0.460392 2.786494 -2.253910
v 0.415333 2.149294 -2.173107
v 0.370275 1.512095 -2.092304
v 0.487007 3.964403 -2.531496
v 0.400375 3.325036 -2.522776
v 0.313744 2.685668 -2.514057
v 0.227112 2.046301 -2.505337
v 0.140480 1.406933 -2.496618
v 0.541250 4.058899 -2.653651
v 0.490468 3.420468 -2.720052
v 0.439687 2.782037 -2.786452
v 0.388905 2.143605 -2.852853
v 0.338124 1.505174 -2.919253
v 0.659826 3.939516 -2.795425
v 0.827769 4.039985 -2.714024
v 0.926630 3.951963 -2.548484
v 0.840862 4.042803 -2.377262
v 0.679811 3.943818 -2.281400
v 0.504362 4.029311 -2.364066
v 0.413006 3.931369 -2.528342
v 0.491269 4.026493 -2.700828
v 0.679099 3.303282 -2.954467
v 0.956173 3.408510 -2.820925
v 1.115486 3.323642 -2.550568
v 0.977588 3.413120 -2.270114
v 0.711786 3.310318 -2.113724
v 0.427206 3.391053 -2.248531
v 0.275399 3.289958 -2.517624
v 0.405791 3.386443 -2.799342
v 0.698819 2.667144 -3.102021
v 1.077349 2.776798 -2.920004
v 1.292863 2.694860 -2.552202
v 1.106501 2.783073 -2.170198
v 0.743316 2.676723 -1.957536
v 0.357279 2.753033 -2.140817
v 0.149271 2.649007 -2.507355
v 0.328127 2.746757 -2.890624
v 0.718237 2.030942 -3.257320
v 1.203399 2.145246 -3.024357
v 1.477980 2.066388 -2.554139
v 1.240682 2.153271 -2.065406
v 0.775146 2.043192 -1.793602
v 0.282478 2.114852 -2.027830
v 0.015404 2.007746 -2.496784
v 0.245195 2.106826 -2.986781
v 0.737591 1.394725 -3.414299
v 1.330505 1.513728 -3.129854
v 1.664775 1.437984 -2.556142
v 1.376006 1.523523 -1.959556
v 0.807041 1.409676 -1.627989
v 0.206621 1.476636 -1.913699
v -0.120143 1.366417 -2.486146
v 0.161120 1.466841 -3.083997
v 1.448528 0.881911 -3.225520
v 1.837143 0.809001 -2.557579
v 1.501510 0.893317 -1.862796
v 0.838376 0.776038 -1.476814
v 0.139847 0.838720 -1.809398
v -0.241262 0.725667 -2.476074
v 0.086865 0.827315 -3.172123
v 0.757505 0.758630 -3.556840
v 0.832514 -0.305848 -2.732461
v 0.781584 0.955975 -2.741042
v 0.992558 -0.298986 -2.673347
v 0.941628 0.962837 -2.681927
v 1.063927 -0.295051 -2.518277
v 1.012997 0.966772 -2.526857
v 1.004815 -0.296348 -2.358090
v 0.953885 0.965476 -2.366671
v 0.849848 -0.302116 -2.286622
v 0.798918 0.959707 -2.295203
v 0.689804 -0.308978 -2.345737
v 0.638875 0.952845 -2.354318
v 0.618435 -0.312913 -2.500807
v 0.567505 0.948910 -2.509387
v 0.677547 -0.311617 -2.660993
v 0.626618 0.950207 -2.669574
vn 0.3462 0.0076 -0.9381
vn 0.9076 0.0338 -0.4186
vn 0.9373 0.0402 0.3462
vn 0.4180 0.0230 0.9082
vn -0.3462 -0.0076 0.9381
vn -0.9076 -0.0338 0.4186
vn -0.0403 0.9992 -0.0068
vn -0.4180 -0.0230 -0.9082
vn -0.9373 -0.0402 -0.3462
vn 0.0403 -0.9992 0.0068
vn 0.2675 0.2992 -0.9159
vn 0.8768 0.3276 -0.3520
vn 0.9013 0.3329 0.2774
vn 0.3376 0.3143 0.8873
vn -0.2913 0.2890 0.9119
vn -0.9005 0.2606 0.3480
vn -0.3614 0.2740 -0.8913
vn -0.9250 0.2554 -0.2814
vn 0.2921 0.4866 -0.8233
vn 0.2936 0.4545 -0.8410
vn 0.2975 0.4058 -0.8642
vn 0.2960 0.3551 -0.8867
vn 0.2799 0.3096 -0.9087
vn 0.7733 0.5091 -0.3780
vn 0.7924 0.4777 -0.3793
vn 0.8176 0.4301 -0.3827
vn 0.8427 0.3807 -0.3807
vn 0.8682 0.3370 -0.3643
vn 0.8000 0.5148 0.3082
vn 0.8191 0.4835 0.3086
vn 0.8446 0.4359 0.3109
vn 0.8695 0.3864 0.3077
vn 0.8936 0.3425 0.2901
vn 0.3549 0.5001 0.7899
vn 0.3577 0.4683 0.8079
vn 0.3634 0.4200 0.8316
vn 0.3637 0.3697 0.8550
vn 0.3494 0.3245 0.8790
vn -0.3308 0.4726 0.8168
vn -0.3297 0.4407 0.8349
vn -0.3297 0.3922 0.8588
vn -0.3241 0.3421 0.8820
vn -0.3045 0.2983 0.9046
vn -0.8120 0.4502 0.3715
vn -0.8285 0.4174 0.3732
vn -0.8499 0.3679 0.3773
vn -0.8709 0.3166 0.3759
vn -0.8927 0.2709 0.3602
vn -0.3936 0.4591 -0.7964
vn -0.3938 0.4269 -0.8140
vn -0.3956 0.3780 -0.8370
vn -0.3918 0.3276 -0.8598
vn -0.3740 0.2833 -0.8831
vn -0.8387 0.4444 -0.3148
vn -0.8553 0.4117 -0.3147
vn -0.8768 0.3621 -0.3163
vn -0.8976 0.3109 -0.3124
vn -0.9181 0.2654 -0.2942
vn 0.3199 -0.8067 0.4969
vn -0.4787 -0.8439 -0.2422
vn -0.4579 -0.8395 0.2927
vn 0.2809 -0.8151 -0.5067
vn -0.2536 -0.8365 -0.4858
vn 0.5450 -0.7993 0.2534
vn -0.2146 -0.8281 0.5179
vn 0.5242 -0.8037 -0.2815
vn 0.2378 -0.9107 0.3377
vn -0.3087 -0.9362 -0.1681
vn -0.2941 -0.9331 0.2071
vn 0.2115 -0.9164 -0.3399
vn -0.1635 -0.9314 -0.3252
vn 0.3830 -0.9059 0.1806
vn -0.1371 -0.9257 0.3524
vn 0.3685 -0.9090 -0.1946
vn 0.1867 -0.9462 0.2644
vn -0.2300 -0.9656 -0.1213
vn -0.2193 -0.9633 0.1549
vn 0.1662 -0.9506 -0.2623
vn -0.1097 -0.9616 -0.2514
vn 0.3070 -0.9422 0.1342
vn -0.0892 -0.9572 0.2752
vn 0.2963 -0.9445 -0.1419
vn 0.1576 -0.9646 0.2112
vn -0.1739 -0.9801 -0.0956
vn -0.1653 -0.9783 0.1252
vn 0.1413 -0.9681 -0.2067
vn -0.0792 -0.9770 -0.1980
vn 0.2523 -0.9615 0.1088
vn -0.0630 -0.9735 0.2199
vn 0.2437 -0.9634 -0.1120
vn 0.1381 -0.9748 0.1751
vn -0.1359 -0.9876 -0.0785
vn -0.1288 -0.9861 0.1053
vn 0.1247 -0.9777 -0.1690
vn -0.0590 -0.9851 -0.1618
vn 0.2150 -0.9723 0.0919
vn -0.0456 -0.9822 0.1823
vn 0.2079 -0.9738 -0.0920
vn 0.1228 -0.9803 0.1547
vn -0.1142 -0.9914 -0.0646
vn -0.1082 -0.9901 0.0899
vn 0.1110 -0.9828 -0.1474
vn -0.0433 -0.9890 -0.1413
vn 0.1936 -0.9780 0.0780
vn -0.0316 -0.9865 0.1607
vn 0.1876 -0.9793 -0.0765
vt 0.660728 0.466209
vt 0.660728 0.280311
vt 0.687340 0.280173
vt 0.687340 0.466071
vt 0.687340 0.498059
vt 0.687340 0.683957
vt 0.668226 0.677865
vt 0.668226 0.491968
vt 0.641614 0.678003
vt 0.641614 0.492106
vt 0.275415 0.320856
vt 0.275415 0.506753
vt 0.256301 0.500662
vt 0.256301 0.314764
vt 0.229689 0.500800
vt 0.229689 0.314902
vt 0.577464 0.677865
vt 0.577464 0.491968
vt 0.596578 0.498059
vt 0.596578 0.683957
vt 0.207948 0.893551
vt 0.207948 0.920166
vt 0.189129 0.938986
vt 0.162513 0.938986
vt 0.143693 0.920166
vt 0.143693 0.893551
vt 0.162513 0.874731
vt 0.189129 0.874731
vt 0.641614 0.460117
vt 0.641614 0.274220
vt 0.623190 0.497921
vt 0.623190 0.683819
vt 0.896833 0.212028
vt 0.878013 0.230848
vt 0.851398 0.230848
vt 0.832578 0.212028
vt 0.832578 0.185413
vt 0.851397 0.166593
vt 0.878013 0.166593
vt 0.896833 0.185413
vt 0.397261 0.988058
vt 0.427214 0.867488
vt 0.428427 0.867639
vt 0.428427 0.977236
vt 0.362383 0.890518
vt 0.316812 0.988058
vt 0.315978 0.987667
vt 0.345930 0.867097
vt 0.314764 0.987516
vt 0.314764 0.877919
vt 0.494471 0.890518
vt 0.448900 0.988058
vt 0.448065 0.987667
vt 0.478017 0.867097
vt 0.446852 0.987516
vt 0.446852 0.877919
vt 0.802146 0.953726
vt 0.847717 0.856186
vt 0.848552 0.856577
vt 0.818600 0.977147
vt 0.380808 0.964637
vt 0.426379 0.867097
vt 0.849765 0.856728
vt 0.849765 0.966325
vt 0.050149 0.206796
vt 0.050149 0.120931
vt 0.098756 0.050149
vt 0.184621 0.050149
vt 0.255403 0.098756
vt 0.255403 0.184621
vt 0.206796 0.255404
vt 0.120931 0.255404
vt 0.581859 0.229912
vt 0.580637 0.229912
vt 0.579772 0.229048
vt 0.579772 0.227825
vt 0.580637 0.226960
vt 0.581859 0.226960
vt 0.582724 0.227825
vt 0.582724 0.229048
vt 0.459765 0.390325
vt 0.340257 0.382208
vt 0.314764 0.312447
vt 0.426556 0.274220
vt 0.851129 0.595981
vt 0.740521 0.555477
vt 0.734860 0.494106
vt 0.851129 0.491968
vt 0.210449 0.856307
vt 0.247527 0.747442
vt 0.296085 0.739963
vt 0.296085 0.853659
vt 0.211268 0.668140
vt 0.243040 0.560362
vt 0.278598 0.550466
vt 0.278598 0.661706
vt 0.733900 0.983443
vt 0.761207 0.876688
vt 0.783722 0.864980
vt 0.783722 0.974206
vt 0.691564 0.208536
vt 0.579772 0.168396
vt 0.605264 0.117200
vt 0.724772 0.125317
vt 0.104486 0.698926
vt 0.009212 0.632452
vt 0.043968 0.598751
vt 0.154577 0.639255
vt 0.877421 0.052578
vt 0.817737 0.148168
vt 0.791754 0.118077
vt 0.828833 0.009212
vt 0.975150 0.679350
vt 0.923822 0.776191
vt 0.905112 0.751070
vt 0.936884 0.643292
vt 0.973802 0.038789
vt 0.929549 0.136469
vt 0.918360 0.115968
vt 0.945667 0.009212
vt 0.579772 0.047439
vt 0.691564 0.009212
vt 0.038307 0.537379
vt 0.154577 0.535241
vt 0.743197 0.125556
vt 0.743197 0.011860
vt 0.869554 0.760966
vt 0.869554 0.649726
vt 0.895845 0.127676
vt 0.895845 0.018449
vt 0.511398 0.274220
vt 0.623190 0.314360
vt 0.597697 0.365555
vt 0.478189 0.357438
vt 0.755856 0.674077
vt 0.851129 0.740551
vt 0.816373 0.774252
vt 0.705765 0.733748
vt 0.448988 0.753082
vt 0.389304 0.848673
vt 0.363322 0.818581
vt 0.400400 0.709716
vt 0.975150 0.310279
vt 0.923822 0.407119
vt 0.905111 0.381998
vt 0.936883 0.274220
vt 0.947511 0.824192
vt 0.903257 0.921873
vt 0.892069 0.901371
vt 0.919376 0.794615
vt 0.623190 0.435316
vt 0.511398 0.473543
vt 0.822035 0.835624
vt 0.705765 0.837762
vt 0.314764 0.826060
vt 0.314764 0.712364
vt 0.869554 0.391894
vt 0.869554 0.280654
vt 0.869554 0.913079
vt 0.869554 0.803853
vt 0.347973 0.491968
vt 0.459765 0.532108
vt 0.434272 0.583303
vt 0.314764 0.575186
vt 0.755856 0.274220
vt 0.851129 0.340693
vt 0.816373 0.374395
vt 0.705765 0.333891
vt 0.009212 0.812941
vt 0.068897 0.717350
vt 0.094879 0.747442
vt 0.057801 0.856307
vt 0.869554 0.588808
vt 0.920883 0.491968
vt 0.939593 0.517089
vt 0.907821 0.624867
vt 0.481082 0.589648
vt 0.525336 0.491968
vt 0.536524 0.512470
vt 0.509217 0.619226
vt 0.426556 0.473543
vt 0.314764 0.433403
vt 0.801038 0.655652
vt 0.705765 0.589179
vt 0.161861 0.812940
vt 0.221545 0.717350
vt 0.173001 0.632082
vt 0.224330 0.535241
vt 0.705765 0.953866
vt 0.750018 0.856186
vt 0.459765 0.653065
vt 0.347973 0.691292
vt 0.822035 0.435767
vt 0.705765 0.437904
vt 0.143436 0.739963
vt 0.143436 0.853659
vt 0.975150 0.507193
vt 0.975150 0.618433
vt 0.559039 0.500762
vt 0.559039 0.609988
vt 0.803762 0.215277
vt 0.814153 0.220746
vt 0.789684 0.237549
vt 0.786460 0.227159
vt 0.760000 0.237549
vt 0.765469 0.227159
vt 0.743197 0.213080
vt 0.753587 0.209856
vt 0.743197 0.183397
vt 0.753587 0.188866
vt 0.767666 0.166593
vt 0.770890 0.176984
vt 0.797350 0.166593
vt 0.791880 0.176984
vt 0.803763 0.194287
vt 0.814153 0.191063
vt 0.107836 0.954128
vt 0.125269 0.963304
vt 0.085246 0.990788
vt 0.079837 0.973355
vt 0.036696 0.990788
vt 0.045872 0.973355
vt 0.009212 0.950765
vt 0.026645 0.945356
vt 0.009212 0.902215
vt 0.026645 0.911391
vt 0.049235 0.874731
vt 0.054644 0.892164
vt 0.097785 0.874731
vt 0.088609 0.892164
vt 0.107836 0.920163
vt 0.125269 0.914753
vt 0.637879 0.837477
vt 0.649927 0.860367
vt 0.583837 0.860366
vt 0.590939 0.837477
vt 0.529355 0.822954
vt 0.552244 0.810905
vt 0.529355 0.756863
vt 0.552244 0.763965
vt 0.566768 0.702381
vt 0.578817 0.725270
vt 0.632859 0.702381
vt 0.625757 0.725270
vt 0.687340 0.739794
vt 0.664451 0.751843
vt 0.664451 0.798783
vt 0.687340 0.805885
vt 0.147933 0.487402
vt 0.163416 0.516817
vt 0.078890 0.516817
vt 0.088018 0.487402
vt 0.009212 0.468968
vt 0.038627 0.453485
vt 0.009212 0.384443
vt 0.038627 0.393570
vt 0.057061 0.314765
vt 0.072544 0.344179
vt 0.141586 0.314765
vt 0.132459 0.344179
vt 0.211264 0.362613
vt 0.181850 0.378096
vt 0.181850 0.438011
vt 0.211264 0.447138
vt 0.350936 0.178361
vt 0.314764 0.197401
vt 0.314764 0.094247
vt 0.350936 0.105471
vt 0.373159 0.009212
vt 0.392199 0.045384
vt 0.476313 0.009212
vt 0.465089 0.045384
vt 0.561347 0.067607
vt 0.525175 0.086646
vt 0.561347 0.170761
vt 0.525175 0.159537
vt 0.502953 0.255795
vt 0.483913 0.219623
vt 0.411023 0.219623
vt 0.399799 0.255795
vt 0.009212 0.228344
vt 0.009212 0.108229
vt 0.077208 0.009212
vt 0.197323 0.009212
vt 0.296340 0.077208
vt 0.296340 0.197323
vt 0.228344 0.296340
vt 0.108229 0.296340
s 0
usemtl Material.008
f 105/1/1 106/2/1 108/3/1 107/4/1
f 107/5/2 108/6/2 110/7/2 109/8/2
f 109/8/3 110/7/3 112/9/3 111/10/3
f 111/11/4 112/12/4 114/13/4 113/14/4
f 113/14/5 114/13/5 116/15/5 115/16/5
f 115/17/6 116/18/6 118/19/6 117/20/6
f 108/21/7 106/22/7 120/23/7 118/24/7 116/25/7 114/26/7 112/27/7 110/28/7
f 119/29/8 120/30/8 106/2/8 105/1/8
f 117/20/9 118/19/9 120/31/9 119/32/9
f 105/33/10 107/34/10 109/35/10 111/36/10 113/37/10 115/38/10 117/39/10 119/40/10
usemtl Material.009
f 57/41/11 2/42/11 4/43/11 58/44/11
f 58/45/12 4/46/12 6/47/12 59/48/12
f 59/48/13 6/47/13 8/49/13 60/50/13
f 60/51/14 8/52/14 10/53/14 61/54/14
f 61/54/15 10/53/15 12/55/15 62/56/15
f 62/57/16 12/58/16 14/59/16 63/60/16
f 64/61/17 16/62/17 2/42/17 57/41/17
f 63/60/18 14/59/18 16/63/18 64/64/18
f 1/65/10 3/66/10 5/67/10 7/68/10 9/69/10 11/70/10 13/71/10 15/72/10
f 4/73/7 2/74/7 16/75/7 14/76/7 12/77/7 10/78/7 8/79/7 6/80/7
f 104/81/19 17/82/19 26/83/19 97/84/19
f 89/85/20 18/86/20 25/87/20 90/88/20
f 81/89/21 19/90/21 24/91/21 82/92/21
f 73/93/22 20/94/22 23/95/22 74/96/22
f 65/97/23 21/98/23 22/99/23 66/100/23
f 97/101/24 26/102/24 31/103/24 98/104/24
f 90/105/25 25/106/25 30/107/25 91/108/25
f 82/109/26 24/110/26 29/111/26 83/112/26
f 74/113/27 23/114/27 28/115/27 75/116/27
f 66/117/28 22/118/28 27/119/28 67/120/28
f 98/104/29 31/103/29 36/121/29 99/122/29
f 91/108/30 30/107/30 35/123/30 92/124/30
f 83/112/31 29/111/31 34/125/31 84/126/31
f 75/116/32 28/115/32 33/127/32 76/128/32
f 67/120/33 27/119/33 32/129/33 68/130/33
f 99/131/34 36/132/34 41/133/34 100/134/34
f 92/135/35 35/136/35 40/137/35 93/138/35
f 84/139/36 34/140/36 39/141/36 85/142/36
f 76/143/37 33/144/37 38/145/37 77/146/37
f 68/147/38 32/148/38 37/149/38 69/150/38
f 100/134/39 41/133/39 46/151/39 101/152/39
f 93/138/40 40/137/40 45/153/40 94/154/40
f 85/142/41 39/141/41 44/155/41 86/156/41
f 77/146/42 38/145/42 43/157/42 78/158/42
f 69/150/43 37/149/43 42/159/43 70/160/43
f 101/161/44 46/162/44 51/163/44 102/164/44
f 94/165/45 45/166/45 50/167/45 95/168/45
f 86/169/46 44/170/46 49/171/46 87/172/46
f 78/173/47 43/174/47 48/175/47 79/176/47
f 70/177/48 42/178/48 47/179/48 71/180/48
f 103/181/49 56/182/49 17/82/49 104/81/49
f 96/183/50 55/184/50 18/86/50 89/85/50
f 88/185/51 54/186/51 19/90/51 81/89/51
f 80/187/52 53/188/52 20/94/52 73/93/52
f 72/189/53 52/190/53 21/98/53 65/97/53
f 102/164/54 51/163/54 56/191/54 103/192/54
f 95/168/55 50/167/55 55/193/55 96/194/55
f 87/172/56 49/171/56 54/195/56 88/196/56
f 79/176/57 48/175/57 53/197/57 80/198/57
f 71/180/58 47/179/58 52/199/58 72/200/58
f 21/201/59 57/202/59 58/203/59 22/204/59
f 22/204/60 58/203/60 59/205/60 27/206/60
f 27/206/61 59/205/61 60/207/61 32/208/61
f 32/208/62 60/207/62 61/209/62 37/210/62
f 37/210/63 61/209/63 62/211/63 42/212/63
f 42/212/64 62/211/64 63/213/64 47/214/64
f 52/215/65 64/216/65 57/202/65 21/201/65
f 47/214/66 63/213/66 64/216/66 52/215/66
f 20/217/67 65/218/67 66/219/67 23/220/67
f 23/220/68 66/219/68 67/221/68 28/222/68
f 28/222/69 67/221/69 68/223/69 33/224/69
f 33/224/70 68/223/70 69/225/70 38/226/70
f 38/226/71 69/225/71 70/227/71 43/228/71
f 43/228/72 70/227/72 71/229/72 48/230/72
f 53/231/73 72/232/73 65/218/73 20/217/73
f 48/230/74 71/229/74 72/232/74 53/231/74
f 19/233/75 73/234/75 74/235/75 24/236/75
f 24/236/76 74/235/76 75/237/76 29/238/76
f 29/238/77 75/237/77 76/239/77 34/240/77
f 34/240/78 76/239/78 77/241/78 39/242/78
f 39/242/79 77/241/79 78/243/79 44/244/79
f 44/244/80 78/243/80 79/245/80 49/246/80
f 54/247/81 80/248/81 73/234/81 19/233/81
f 49/246/82 79/245/82 80/248/82 54/247/82
f 18/249/83 81/250/83 82/251/83 25/252/83
f 25/252/84 82/251/84 83/253/84 30/254/84
f 30/254/85 83/253/85 84/255/85 35/256/85
f 35/256/86 84/255/86 85/257/86 40/258/86
f 40/258/87 85/257/87 86/259/87 45/260/87
f 45/260/88 86/259/88 87/261/88 50/262/88
f 55/263/89 88/264/89 81/250/89 18/249/89
f 50/262/90 87/261/90 88/264/90 55/263/90
f 17/265/91 89/266/91 90/267/91 26/268/91
f 26/268/92 90/267/92 91/269/92 31/270/92
f 31/270/93 91/269/93 92/271/93 36/272/93
f 36/272/94 92/271/94 93/273/94 41/274/94
f 41/274/95 93/273/95 94/275/95 46/276/95
f 46/276/96 94/275/96 95/277/96 51/278/96
f 56/279/97 96/280/97 89/266/97 17/265/97
f 51/278/98 95/277/98 96/280/98 56/279/98
f 1/65/99 104/281/99 97/282/99 3/66/99
f 3/66/100 97/282/100 98/283/100 5/67/100
f 5/67/101 98/283/101 99/284/101 7/68/101
f 7/68/102 99/284/102 100/285/102 9/69/102
f 9/69/103 100/285/103 101/286/103 11/70/103
f 11/70/104 101/286/104 102/287/104 13/71/104
f 15/72/105 103/288/105 104/281/105 1/65/105
f 13/71/106 102/287/106 103/288/106 15/72/106
