# Blender 4.0.0
# www.blender.org
mtllib Rock_3.mtl
o caillou2_Icosphere.001
v 1.914716 -0.064098 3.288686
v 2.131516 -0.075725 3.427339
v 1.836186 -0.073240 3.497758
v 1.582371 -0.085494 3.228652
v 1.818101 -0.071660 3.050587
v 2.115186 -0.072633 3.120990
v 1.967303 0.056898 3.436596
v 1.648820 0.106443 3.322461
v 1.656269 0.116588 3.103340
v 1.947902 0.134928 3.052868
v 2.129782 0.111655 3.207278
v 1.906638 0.140534 3.279703
v 1.865868 -0.064231 3.433686
v 2.043148 -0.063952 3.381018
v 1.991190 -0.071234 3.519295
v 2.169665 -0.073338 3.274196
v 2.041801 -0.064098 3.196354
v 1.755547 -0.064135 3.284174
v 1.661457 -0.069818 3.372781
v 1.865965 -0.064211 3.139529
v 1.673462 -0.081037 3.119956
v 1.979495 -0.071517 3.062724
v 2.177242 -0.008616 3.316100
v 2.159425 -0.000604 3.147378
v 1.905334 -0.019193 3.507412
v 2.088865 -0.005136 3.479454
v 1.571155 -0.001464 3.298554
v 1.689825 0.002700 3.401973
v 1.687500 0.001578 3.052450
v 1.563925 -0.016805 3.153094
v 2.074136 0.021317 3.056681
v 1.869382 0.004333 3.022926
v 2.081290 0.093656 3.325532
v 1.751745 0.087048 3.346850
v 1.648630 0.132299 3.214611
v 1.773318 0.147835 3.039951
v 2.064125 0.148447 3.099740
v 1.931324 0.138675 3.358402
v 2.012762 0.157246 3.242910
v 1.758600 0.150145 3.275954
v 1.762225 0.178870 3.186707
v 1.899767 0.198882 3.154915
vn 0.0014 -1.0000 -0.0004
vn -0.1098 -0.9930 -0.0428
vn 0.0003 -1.0000 -0.0008
vn 0.0002 -1.0000 0.0007
vn 0.0004 -1.0000 0.0006
vn 0.9383 -0.2586 0.2297
vn -0.1376 -0.0009 0.9905
vn -0.7445 -0.4829 0.4610
vn -0.3271 -0.5640 -0.7582
vn 0.3557 -0.4171 -0.8364
vn 0.8667 0.1803 0.4651
vn -0.3853 0.3397 0.8580
vn -0.9798 -0.1878 0.0685
vn -0.1517 -0.2461 -0.9573
vn 0.6964 -0.1725 -0.6966
vn 0.3479 0.7234 0.5964
vn -0.0164 0.7477 0.6638
vn -0.4071 0.9001 -0.1550
vn 0.1004 0.8637 -0.4939
vn 0.3831 0.9201 0.0809
vn 0.0303 -0.9916 -0.1254
vn -0.0158 -0.9982 -0.0585
vn -0.0876 -0.9925 -0.0852
vn -0.0883 -0.9957 0.0268
vn -0.0729 -0.9973 0.0013
vn 0.0006 -1.0000 0.0008
vn 0.1066 -0.9931 0.0495
vn 0.0352 -0.9990 -0.0266
vn 0.0603 -0.9919 -0.1115
vn 0.0831 -0.9958 0.0387
vn 0.0806 -0.9948 0.0621
vn 0.1068 -0.9931 0.0488
vn -0.0399 -0.9965 0.0739
vn -0.0203 -0.9977 0.0649
vn -0.0056 -0.9962 0.0865
vn 0.9509 0.2972 -0.0863
vn 0.9931 -0.0469 -0.1071
vn 0.8570 -0.4140 -0.3067
vn 0.0654 0.6508 0.7565
vn 0.1095 0.3894 0.9145
vn 0.5196 -0.2816 0.8067
vn -0.6332 0.2974 0.7146
vn -0.6553 -0.0471 0.7539
vn -0.5802 -0.0985 0.8085
vn -0.6376 0.1603 -0.7535
vn -0.5039 -0.4936 -0.7088
vn -0.5468 -0.6816 -0.4862
vn 0.1503 0.1342 -0.9795
vn 0.1774 -0.2429 -0.9537
vn 0.0696 -0.3824 -0.9214
vn 0.2378 0.8227 0.5163
vn 0.6959 0.6194 0.3633
vn 0.6924 0.6148 0.3775
vn -0.0806 0.5861 0.8062
vn -0.2753 0.6593 0.6996
vn -0.1670 0.7412 0.6502
vn -0.8374 0.5303 -0.1324
vn -0.8678 0.4968 -0.0093
vn -0.8181 0.5588 0.1354
vn 0.0854 0.1736 -0.9811
vn -0.1604 0.0097 -0.9870
vn -0.5101 0.2284 -0.8293
vn 0.8327 0.4153 -0.3663
vn 0.7332 0.2692 -0.6244
vn 0.3206 0.3264 -0.8892
vn -0.1332 0.9890 0.0651
vn 0.3413 0.8602 0.3790
vn 0.4248 0.8527 0.3040
vn 0.0647 0.9979 0.0033
vn -0.2518 0.7349 0.6297
vn -0.2264 0.6193 0.7518
vn 0.0539 0.9499 0.3079
vn -0.3043 0.9103 0.2806
vn -0.2768 0.9343 0.2245
vn -0.0334 0.9047 0.4248
vn -0.1895 0.9576 -0.2168
vn -0.3606 0.9066 -0.2190
vn 0.0041 0.9059 0.4234
vn 0.3090 0.9496 0.0525
vn 0.0990 0.8635 -0.4945
vt 0.221831 0.772621
vt 0.101766 0.848544
vt 0.117494 0.683200
vt 0.033501 0.906535
vt 0.148213 0.989789
vt 0.279091 0.641581
vt 0.362437 0.782157
vt 0.256009 0.909493
vt 0.742109 0.525437
vt 0.780599 0.651193
vt 0.713512 0.632799
vt 0.005562 0.123390
vt 0.004082 0.004082
vt 0.052616 0.068772
vt 0.004082 0.453413
vt 0.014119 0.315624
vt 0.078487 0.418800
vt 0.649720 0.241672
vt 0.642526 0.104574
vt 0.717660 0.126265
vt 0.642526 0.497762
vt 0.646881 0.383897
vt 0.728718 0.470204
vt 0.669194 0.505927
vt 0.078171 0.277417
vt 0.067430 0.507801
vt 0.717563 0.291699
vt 0.824206 0.787410
vt 0.763230 0.872694
vt 0.753687 0.779866
vt 0.405335 0.094184
vt 0.544184 0.133113
vt 0.413348 0.175505
vt 0.206772 0.325613
vt 0.276323 0.260414
vt 0.314264 0.316262
vt 0.308684 0.494293
vt 0.254426 0.411448
vt 0.356846 0.386029
vt 0.559860 0.407032
vt 0.428949 0.494293
vt 0.479082 0.351734
vt 0.634362 0.205342
vt 0.630822 0.320194
vt 0.528162 0.231175
vt 0.004082 0.758774
vt 0.074122 0.636920
vt 0.294116 0.995918
vt 0.236932 0.533423
vt 0.383566 0.515965
vt 0.443465 0.628374
vt 0.452606 0.772172
vt 0.388249 0.902502
vt 0.642526 0.763797
vt 0.323895 0.061838
vt 0.480365 0.004082
vt 0.605459 0.502458
vt 0.634362 0.562330
vt 0.569923 0.653690
vt 0.634362 0.713057
vt 0.173480 0.348731
vt 0.701464 0.004082
vt 0.820532 0.094111
vt 0.452606 0.526186
vt 0.832930 0.359943
vt 0.621003 0.092964
vt 0.153711 0.264242
vt 0.211218 0.488642
vt 0.198608 0.410197
vt 0.847723 0.206260
vt 0.643213 0.872694
vt 0.842249 0.458042
vt 0.428453 0.247976
vt 0.498224 0.704563
vt 0.498224 0.502458
vt 0.561759 0.581430
s 0
usemtl Material.005
f 1/1/1 14/2/1 13/3/1
f 2/4/2 14/2/2 16/5/2
f 1/1/3 13/3/3 18/6/3
f 1/1/4 18/6/4 20/7/4
f 1/1/5 20/7/5 17/8/5
f 2/9/6 16/10/6 23/11/6
f 3/12/7 15/13/7 25/14/7
f 4/15/8 19/16/8 27/17/8
f 5/18/9 21/19/9 29/20/9
f 6/21/10 22/22/10 31/23/10
f 2/9/11 23/11/11 26/24/11
f 3/12/12 25/14/12 28/25/12
f 4/15/13 27/17/13 30/26/13
f 5/18/14 29/20/14 32/27/14
f 6/28/15 31/29/15 24/30/15
f 7/31/16 33/32/16 38/33/16
f 8/34/17 34/35/17 40/36/17
f 9/37/18 35/38/18 41/39/18
f 10/40/19 36/41/19 42/42/19
f 11/43/20 37/44/20 39/45/20
f 13/3/21 15/46/21 3/47/21
f 13/3/22 14/2/22 15/46/22
f 14/2/23 2/4/23 15/46/23
f 16/5/24 17/8/24 6/48/24
f 16/5/25 14/2/25 17/8/25
f 14/2/26 1/1/26 17/8/26
f 18/6/27 19/49/27 4/50/27
f 18/6/28 13/3/28 19/49/28
f 13/3/29 3/47/29 19/49/29
f 20/7/30 21/51/30 5/52/30
f 20/7/31 18/6/31 21/51/31
f 18/6/32 4/50/32 21/51/32
f 17/8/33 22/53/33 6/48/33
f 17/8/34 20/7/34 22/53/34
f 20/7/35 5/52/35 22/53/35
f 23/11/36 24/30/36 11/54/36
f 23/11/37 16/10/37 24/30/37
f 16/10/38 6/28/38 24/30/38
f 25/55/39 26/56/39 7/31/39
f 25/57/40 15/58/40 26/59/40
f 15/58/41 2/60/41 26/59/41
f 27/17/42 28/25/42 8/61/42
f 27/17/43 19/16/43 28/25/43
f 19/16/44 3/12/44 28/25/44
f 29/20/45 30/62/45 9/63/45
f 29/20/46 21/19/46 30/62/46
f 21/51/47 4/50/47 30/64/47
f 31/23/48 32/27/48 10/65/48
f 31/23/49 22/22/49 32/27/49
f 22/22/50 5/18/50 32/27/50
f 26/56/51 33/32/51 7/31/51
f 26/56/52 23/66/52 33/32/52
f 23/66/53 11/43/53 33/32/53
f 28/25/54 34/67/54 8/61/54
f 28/25/55 25/14/55 34/67/55
f 25/55/56 7/31/56 34/35/56
f 30/68/57 35/38/57 9/37/57
f 30/26/58 27/17/58 35/69/58
f 27/17/59 8/61/59 35/69/59
f 32/27/60 36/70/60 10/65/60
f 32/27/61 29/20/61 36/70/61
f 29/20/62 9/63/62 36/70/62
f 24/30/63 37/71/63 11/54/63
f 24/30/64 31/29/64 37/71/64
f 31/23/65 10/65/65 37/72/65
f 38/33/66 39/45/66 12/73/66
f 38/33/67 33/32/67 39/45/67
f 33/32/68 11/43/68 39/45/68
f 40/36/69 38/33/69 12/73/69
f 40/36/70 34/35/70 38/33/70
f 34/74/71 7/75/71 38/76/71
f 41/39/72 40/36/72 12/73/72
f 41/39/73 35/38/73 40/36/73
f 35/38/74 8/34/74 40/36/74
f 42/42/75 41/39/75 12/73/75
f 42/42/76 36/41/76 41/39/76
f 36/41/77 9/37/77 41/39/77
f 39/45/78 42/42/78 12/73/78
f 39/45/79 37/44/79 42/42/79
f 37/44/80 10/40/80 42/42/80
